#!OML:ASF F:\VICON\USERDATA\INSTALL\rory3\rory3.ASF
:FULLY-SPECIFIED
:DEGREES
3338
root -3.74532 17.172 -2.86202 43.2783 -25.6812 6.57212
lowerback 48.7962 -6.39897 12.3091
upperback 12.8958 -1.34084 8.95636
thorax -5.47698 -1.09511 4.62545
lowerneck -29.2001 -6.3789 -14.8389
upperneck 17.7216 -3.40425 3.17481
head 10.7984 -2.21941 2.9089
rclavicle 1.90833e-014 1.05157e-013
rhumerus 54.3711 3.1958 -44.2156
rradius 31.1997
rwrist 16.0389
rhand -22.451 1.30034
rfingers 7.12502
rthumb 3.97331 -28.6424
lclavicle 1.90833e-014 1.05157e-013
lhumerus 71.6722 -26.8288 51.2163
lradius 31.3126
lwrist -16.689
lhand -15.1453 24.8699
lfingers 7.12502
lthumb 11.0246 54.5604
rfemur -72.4168 7.18116 -19.1788
rtibia 30.7829
rfoot -9.03191 -8.39352
rtoes 2.70043
lfemur -47.5677 7.59496 -15.7268
ltibia 14.9705
lfoot -3.56405 37.8585
ltoes -12.2238
3339
root -3.71862 17.1791 -2.87974 43.1315 -25.4053 6.50936
lowerback 48.3465 -6.24859 12.0257
upperback 12.9533 -1.36532 9.01933
thorax -5.37219 -1.10331 4.79309
lowerneck -29.5695 -6.45625 -15.0213
upperneck 18.0583 -3.36708 3.19907
head 10.9885 -2.22282 2.95105
rclavicle -2.06736e-014 -9.34288e-015
rhumerus 53.7502 3.6161 -43.9131
rradius 31.8614
rwrist 15.8896
rhand -22.9819 1.52745
rfingers 7.12502
rthumb 3.4606 -28.4242
lclavicle -2.06736e-014 -9.34288e-015
lhumerus 70.5011 -26.6092 51.9773
lradius 32.0013
lwrist -16.7613
lhand -14.7371 24.2572
lfingers 7.12502
lthumb 11.4183 53.9263
rfemur -72.1084 7.17721 -19.0519
rtibia 30.5971
rfoot -9.06055 -8.46246
rtoes 3.20385
lfemur -47.7488 7.54414 -15.6507
ltibia 15.4133
lfoot -3.70155 37.6711
ltoes -12.2633
3340
root -3.69114 17.1856 -2.90188 43.0288 -25.0155 6.4299
lowerback 47.8488 -6.14517 11.7896
upperback 12.9324 -1.41501 9.04333
thorax -5.33997 -1.11953 4.90883
lowerneck -29.6697 -6.41887 -15.0603
upperneck 18.275 -3.28203 3.22425
head 11.0809 -2.19073 2.98323
rclavicle 7.15625e-014 -5.64548e-014
rhumerus 52.9593 4.10875 -43.8381
rradius 32.6801
rwrist 16.1861
rhand -23.0002 0.862657
rfingers 7.12502
rthumb 3.44291 -29.0893
lclavicle 7.15625e-014 -5.64548e-014
lhumerus 69.2796 -26.5338 52.4176
lradius 32.6704
lwrist -16.8914
lhand -14.2616 23.0753
lfingers 7.12502
lthumb 11.8768 52.7184
rfemur -71.7885 7.07973 -18.7917
rtibia 30.4156
rfoot -9.02027 -8.56779
rtoes 3.38841
lfemur -48.0414 7.46078 -15.4958
ltibia 15.8958
lfoot -3.57372 37.4455
ltoes -12.9032
3341
root -3.66235 17.1911 -2.92286 42.9113 -24.6354 6.27838
lowerback 47.414 -6.0423 11.5607
upperback 12.8672 -1.44718 9.03767
thorax -5.36351 -1.12865 4.98871
lowerneck -29.523 -6.33755 -15.0826
upperneck 18.2691 -3.20752 3.31103
head 11.0486 -2.14676 3.0352
rclavicle -1.27222e-014 -5.74488e-014
rhumerus 52.0254 4.61944 -44.001
rradius 33.6143
rwrist 16.5578
rhand -22.8977 0.270814
rfingers 7.12502
rthumb 3.54189 -29.6795
lclavicle -1.27222e-014 -5.74488e-014
lhumerus 67.8844 -26.4851 53.1049
lradius 33.2419
lwrist -17.3593
lhand -14.2339 21.9558
lfingers 7.12502
lthumb 11.9035 51.5974
rfemur -71.4695 7.07124 -18.5264
rtibia 30.2359
rfoot -9.00967 -8.6668
rtoes 3.58454
lfemur -48.2407 7.24536 -15.1324
ltibia 16.4084
lfoot -4.02174 37.4183
ltoes -12.7428
3342
root -3.63458 17.1946 -2.9424 42.7084 -24.3848 6.14032
lowerback 47.0698 -5.85883 11.1813
upperback 12.8114 -1.43608 9.06192
thorax -5.40053 -1.12471 5.15666
lowerneck -29.3552 -6.26864 -15.1562
upperneck 18.2689 -3.1149 3.32643
head 11.0136 -2.10865 3.07098
rclavicle 2.46493e-014 3.47873e-014
rhumerus 51.085 5.17082 -44.0229
rradius 34.5492
rwrist 16.7264
rhand -22.8535 0.0990888
rfingers 7.12502
rthumb 3.58454 -29.8505
lclavicle 2.46493e-014 3.47873e-014
lhumerus 66.3505 -26.3407 54.0935
lradius 33.9955
lwrist -17.0659
lhand -14.2203 22.102
lfingers 7.12502
lthumb 11.9166 51.7428
rfemur -71.1326 7.06967 -18.2129
rtibia 30.0713
rfoot -8.8927 -8.65556
rtoes 3.76589
lfemur -48.3447 7.17958 -14.9321
ltibia 16.9457
lfoot -4.50841 37.3061
ltoes -12.5311
3343
root -3.60588 17.199 -2.96446 42.5446 -24.0467 6.01564
lowerback 46.619 -5.73084 10.8834
upperback 12.7751 -1.47476 9.02592
thorax -5.38747 -1.135 5.23659
lowerneck -29.2788 -6.13547 -14.9056
upperneck 18.3613 -2.99346 3.10621
head 11.0161 -2.06819 2.97317
rclavicle 5.80451e-014 3.22031e-014
rhumerus 50.1667 5.69555 -44.1515
rradius 35.4459
rwrist 16.8086
rhand -22.7265 0.396846
rfingers 7.12502
rthumb 3.70719 -29.5507
lclavicle 5.80451e-014 3.22031e-014
lhumerus 64.936 -26.1406 54.5795
lradius 34.9068
lwrist -16.3107
lhand -14.2163 22.4096
lfingers 7.12502
lthumb 11.9206 52.0502
rfemur -70.7908 6.97185 -17.8308
rtibia 29.8939
rfoot -8.73941 -8.68132
rtoes 3.80599
lfemur -48.6018 7.48157 -15.048
ltibia 17.5067
lfoot -5.29569 36.7072
ltoes -11.0525
3344
root -3.57727 17.2027 -2.98781 42.4332 -23.6842 5.90999
lowerback 45.2085 -5.35738 10.2411
upperback 13.631 -1.56826 9.25164
thorax -5.33497 -1.12443 5.48958
lowerneck -29.2235 -6.07762 -14.7857
upperneck 18.4437 -2.95392 3.0343
head 11.031 -2.05396 2.93632
rclavicle 1.11319e-014 9.0944e-014
rhumerus 49.178 6.25869 -44.1694
rradius 36.4624
rwrist 16.6854
rhand -22.8189 0.666258
rfingers 7.12502
rthumb 3.61803 -29.2828
lclavicle 1.11319e-014 9.0944e-014
lhumerus 63.5128 -25.979 55.0479
lradius 35.7245
lwrist -16.0527
lhand -14.596 22.168
lfingers 7.12502
lthumb 11.5544 51.8295
rfemur -70.4835 6.80909 -17.441
rtibia 29.7169
rfoot -8.57534 -8.68368
rtoes 3.65409
lfemur -48.9476 7.86283 -15.268
ltibia 18.0609
lfoot -6.41678 35.9971
ltoes -8.65117
3345
root -3.54676 17.2067 -3.01013 42.3016 -23.3623 5.80251
lowerback 44.7097 -5.18132 9.84619
upperback 13.5241 -1.56929 9.26883
thorax -5.35081 -1.12447 5.67934
lowerneck -28.9529 -6.01227 -14.738
upperneck 18.3613 -2.91223 2.94983
head 10.9487 -2.04064 2.90652
rclavicle -1.59028e-014 3.00165e-014
rhumerus 48.0071 6.91393 -44.0593
rradius 37.6037
rwrist 16.6178
rhand -22.9054 0.494172
rfingers 7.12502
rthumb 3.53444 -29.4563
lclavicle -1.59028e-014 3.00165e-014
lhumerus 61.873 -25.8787 55.9875
lradius 36.4824
lwrist -16.1962
lhand -14.7803 22.2144
lfingers 7.12502
lthumb 11.3767 51.8857
rfemur -70.1782 6.74156 -17.1951
rtibia 29.5372
rfoot -8.49446 -8.76537
rtoes 3.86328
lfemur -49.2125 7.96697 -15.2612
ltibia 18.5896
lfoot -6.32779 35.5583
ltoes -9.04726
3346
root -3.51614 17.2128 -3.03091 42.1679 -22.9219 5.66667
lowerback 44.2027 -5.11911 9.63181
upperback 13.3793 -1.62881 9.20454
thorax -5.39208 -1.14284 5.71758
lowerneck -28.6084 -5.81619 -14.4412
upperneck 18.2155 -2.77039 2.71726
head 10.814 -1.98079 2.80131
rclavicle 2.78299e-014 -4.49253e-014
rhumerus 46.7883 7.48649 -44.3564
rradius 38.6802
rwrist 16.8287
rhand -22.9373 0.674542
rfingers 7.12502
rthumb 3.50364 -29.2764
lclavicle 2.78299e-014 -4.49253e-014
lhumerus 60.1864 -25.7158 56.8399
lradius 37.255
lwrist -16.434
lhand -14.6944 22.1413
lfingers 7.12502
lthumb 11.4595 51.8081
rfemur -69.8094 6.68192 -16.8916
rtibia 29.3702
rfoot -8.47469 -8.87825
rtoes 3.88262
lfemur -49.4938 8.08241 -15.2176
ltibia 19.1076
lfoot -4.70297 34.9032
ltoes -12.4656
3347
root -3.48606 17.2195 -3.0528 42.0354 -22.4007 5.51265
lowerback 43.5883 -5.08626 9.49755
upperback 13.3137 -1.71826 9.13212
thorax -5.30679 -1.17119 5.71186
lowerneck -28.5235 -5.67426 -14.2894
upperneck 18.2722 -2.64499 2.69855
head 10.8063 -1.91688 2.79511
rclavicle -4.6118e-014 9.24349e-015
rhumerus 45.7142 7.97682 -44.7328
rradius 39.6819
rwrist 16.9289
rhand -22.9854 1.10401
rfingers 7.12502
rthumb 3.45717 -28.8477
lclavicle -4.6118e-014 9.24349e-015
lhumerus 58.6795 -25.459 57.3762
lradius 38.0496
lwrist -16.5654
lhand -15.3181 21.7813
lfingers 7.12502
lthumb 10.858 51.4806
rfemur -69.4148 6.59289 -16.5189
rtibia 29.2301
rfoot -8.51148 -8.9378
rtoes 4.11268
lfemur -49.7534 8.101 -15.0547
ltibia 19.6016
lfoot -4.54369 34.4151
ltoes -13.052
